<svg xmlns="http://www.w3.org/2000/svg" xmlns:xlink="http://www.w3.org/1999/xlink" width="500" zoomAndPan="magnify" viewBox="0 0 375 374.999991" height="500" preserveAspectRatio="xMidYMid meet" version="1.0"><defs><g/><clipPath id="8574ecf9a2"><path d="M 50.808594 153.5 L 118.804688 153.5 L 118.804688 221.5 L 50.808594 221.5 Z M 50.808594 153.5 " clip-rule="nonzero"/></clipPath><clipPath id="2cf816bafe"><path d="M 84.808594 153.5 C 66.03125 153.5 50.808594 168.722656 50.808594 187.5 C 50.808594 206.277344 66.03125 221.5 84.808594 221.5 C 103.585938 221.5 118.804688 206.277344 118.804688 187.5 C 118.804688 168.722656 103.585938 153.5 84.808594 153.5 Z M 84.808594 153.5 " clip-rule="nonzero"/></clipPath></defs><g clip-path="url(#8574ecf9a2)"><g clip-path="url(#2cf816bafe)"><path fill="#38b6ff" d="M 50.808594 153.5 L 118.804688 153.5 L 118.804688 221.5 L 50.808594 221.5 Z M 50.808594 153.5 " fill-opacity="1" fill-rule="nonzero"/></g></g><g fill="#ffffff" fill-opacity="1"><g transform="translate(69.324998, 200.999987)"><g><path d="M 22.234375 -6.515625 L 22 -6.640625 C 20.875 -6.929688 19.6875 -7.113281 18.4375 -7.1875 C 17.1875 -7.269531 15.90625 -7.445312 14.59375 -7.71875 C 15.875 -7.445312 17.128906 -7.238281 18.359375 -7.09375 C 19.585938 -6.945312 20.800781 -6.675781 22 -6.28125 C 21.625 -6.039062 21.222656 -5.921875 20.796875 -5.921875 C 20.296875 -5.972656 19.796875 -6.050781 19.296875 -6.15625 C 18.804688 -6.257812 18.28125 -6.34375 17.71875 -6.40625 C 17.71875 -6.5625 17.757812 -6.679688 17.84375 -6.765625 C 17.070312 -6.765625 16.304688 -6.84375 15.546875 -7 C 14.785156 -7.15625 14.039062 -7.332031 13.3125 -7.53125 C 12.59375 -7.738281 11.894531 -7.925781 11.21875 -8.09375 C 10.539062 -8.269531 9.90625 -8.359375 9.3125 -8.359375 C 9.3125 -8.273438 9.300781 -8.234375 9.28125 -8.234375 C 9.96875 -8.109375 10.617188 -7.921875 11.234375 -7.671875 C 11.847656 -7.429688 12.539062 -7.25 13.3125 -7.125 C 14.0625 -6.9375 14.789062 -6.800781 15.5 -6.71875 C 16.207031 -6.632812 16.90625 -6.53125 17.59375 -6.40625 C 16.476562 -6.507812 15.335938 -6.664062 14.171875 -6.875 C 13.015625 -7.09375 11.878906 -7.332031 10.765625 -7.59375 L 8.875 -8.078125 C 8.207031 -6.367188 7.535156 -4.691406 6.859375 -3.046875 C 6.179688 -1.410156 5.519531 0.242188 4.875 1.921875 C 4.820312 1.816406 4.734375 1.753906 4.609375 1.734375 C 4.492188 1.722656 4.375 1.71875 4.25 1.71875 C 4.132812 1.71875 4.023438 1.679688 3.921875 1.609375 C 3.816406 1.546875 3.765625 1.410156 3.765625 1.203125 C 3.765625 0.984375 3.816406 0.679688 3.921875 0.296875 C 4.023438 -0.0859375 4.222656 -0.597656 4.515625 -1.234375 C 4.460938 -1.285156 4.375 -1.316406 4.25 -1.328125 C 4.132812 -1.347656 4.050781 -1.359375 4 -1.359375 C 3.46875 -0.242188 2.953125 0.613281 2.453125 1.21875 C 1.960938 1.820312 1.570312 2.125 1.28125 2.125 C 0.957031 2.125 0.796875 1.816406 0.796875 1.203125 C 0.796875 0.691406 0.890625 0.046875 1.078125 -0.734375 C 1.265625 -1.523438 1.5 -2.375 1.78125 -3.28125 C 2.0625 -4.1875 2.375 -5.125 2.71875 -6.09375 C 3.0625 -7.070312 3.394531 -8.023438 3.71875 -8.953125 C 3.425781 -9.140625 3.113281 -9.273438 2.78125 -9.359375 C 2.445312 -9.441406 2.082031 -9.507812 1.6875 -9.5625 C 1.757812 -9.664062 1.796875 -9.796875 1.796875 -9.953125 C 1.796875 -10.117188 1.804688 -10.28125 1.828125 -10.4375 C 1.859375 -10.601562 1.914062 -10.738281 2 -10.84375 C 2.082031 -10.945312 2.226562 -11 2.4375 -11 C 2.488281 -11 2.648438 -10.972656 2.921875 -10.921875 L 2.921875 -11.28125 C 2.492188 -11.488281 2.164062 -11.738281 1.9375 -12.03125 C 1.707031 -12.332031 1.59375 -12.628906 1.59375 -12.921875 C 1.59375 -13.554688 2.207031 -13.875 3.4375 -13.875 C 3.78125 -13.875 4.132812 -13.851562 4.5 -13.8125 C 4.863281 -13.78125 5.226562 -13.738281 5.59375 -13.6875 L 7.4375 -17.875 C 7.84375 -18.78125 8.273438 -19.710938 8.734375 -20.671875 C 9.203125 -21.640625 9.753906 -22.585938 10.390625 -23.515625 C 11.035156 -24.453125 11.765625 -25.335938 12.578125 -26.171875 C 13.390625 -27.015625 14.332031 -27.769531 15.40625 -28.4375 L 16 -28.6875 C 16.75 -28.5 17.351562 -28.34375 17.8125 -28.21875 C 18.28125 -28.101562 18.660156 -28.015625 18.953125 -27.953125 C 19.222656 -27.847656 19.4375 -27.785156 19.59375 -27.765625 L 19.5625 -27.765625 L 19.59375 -27.640625 C 19.59375 -27.609375 19.582031 -27.582031 19.5625 -27.5625 L 20.046875 -26.71875 C 21.773438 -23.8125 23.238281 -20.796875 24.4375 -17.671875 C 25.632812 -14.554688 26.660156 -11.492188 27.515625 -8.484375 C 27.734375 -7.816406 27.992188 -7.101562 28.296875 -6.34375 C 28.609375 -5.582031 28.898438 -4.859375 29.171875 -4.171875 C 29.453125 -3.492188 29.6875 -2.878906 29.875 -2.328125 C 30.0625 -1.785156 30.15625 -1.394531 30.15625 -1.15625 C 30.15625 -0.96875 30.113281 -0.851562 30.03125 -0.8125 C 29.957031 -0.78125 29.851562 -0.765625 29.71875 -0.765625 C 29.03125 -2.492188 28.378906 -4.195312 27.765625 -5.875 C 27.148438 -7.53125 26.546875 -9.195312 25.953125 -10.875 C 26.492188 -9.195312 27.054688 -7.53125 27.640625 -5.875 C 28.253906 -4.195312 28.867188 -2.492188 29.484375 -0.765625 L 29.203125 -0.765625 C 29.035156 -0.765625 28.925781 -0.679688 28.875 -0.515625 C 28.925781 -0.460938 28.992188 -0.320312 29.078125 -0.09375 C 29.160156 0.125 29.238281 0.359375 29.3125 0.609375 C 29.394531 0.867188 29.460938 1.128906 29.515625 1.390625 C 29.566406 1.660156 29.59375 1.863281 29.59375 2 C 29.59375 2.582031 29.421875 2.875 29.078125 2.875 C 28.890625 2.875 28.742188 2.832031 28.640625 2.75 C 28.535156 2.675781 28.414062 2.570312 28.28125 2.4375 L 27.875 2.046875 C 27.71875 1.878906 27.519531 1.71875 27.28125 1.5625 L 23.4375 -9.484375 C 24 -7.742188 24.550781 -6.007812 25.09375 -4.28125 C 25.644531 -2.550781 26.210938 -0.84375 26.796875 0.84375 C 26.367188 0.332031 25.972656 -0.28125 25.609375 -1 C 25.253906 -1.71875 24.921875 -2.476562 24.609375 -3.28125 C 24.304688 -4.082031 24.019531 -4.898438 23.75 -5.734375 C 23.488281 -6.578125 23.222656 -7.375 22.953125 -8.125 C 22.953125 -8.070312 22.957031 -8.023438 22.96875 -7.984375 C 22.988281 -7.941406 23 -7.894531 23 -7.84375 C 23 -7.414062 22.863281 -7.09375 22.59375 -6.875 Z M 22 -10.6875 C 22.050781 -10.6875 22.128906 -10.703125 22.234375 -10.734375 C 22.347656 -10.773438 22.429688 -10.796875 22.484375 -10.796875 C 21.597656 -13.015625 20.722656 -15.160156 19.859375 -17.234375 C 18.992188 -19.316406 18.039062 -21.316406 17 -23.234375 L 16.765625 -23 L 17.359375 -21.921875 C 18.296875 -20.210938 19.132812 -18.453125 19.875 -16.640625 C 20.625 -14.828125 21.332031 -12.960938 22 -11.046875 C 21.226562 -13.117188 20.394531 -15.1875 19.5 -17.25 C 18.601562 -19.320312 17.648438 -21.195312 16.640625 -22.875 L 16.484375 -22.796875 C 15.578125 -21.867188 14.726562 -20.75 13.9375 -19.4375 C 13.15625 -18.132812 12.414062 -16.800781 11.71875 -15.4375 L 10.6875 -12.921875 L 11.359375 -12.765625 C 11.753906 -12.648438 12.144531 -12.53125 12.53125 -12.40625 C 12.925781 -12.289062 13.269531 -12.171875 13.5625 -12.046875 C 14.144531 -11.742188 14.914062 -11.515625 15.875 -11.359375 C 16.832031 -11.203125 17.769531 -11.050781 18.6875 -10.90625 C 19.613281 -10.757812 20.414062 -10.597656 21.09375 -10.421875 C 21.78125 -10.242188 22.125 -10 22.125 -9.6875 L 17.234375 -10.234375 C 17.535156 -10.179688 17.894531 -10.117188 18.3125 -10.046875 C 18.738281 -9.984375 19.171875 -9.910156 19.609375 -9.828125 C 20.054688 -9.753906 20.492188 -9.679688 20.921875 -9.609375 C 21.347656 -9.546875 21.707031 -9.488281 22 -9.4375 C 22 -9.351562 21.988281 -9.28125 21.96875 -9.21875 C 21.957031 -9.15625 21.953125 -9.097656 21.953125 -9.046875 C 21.953125 -8.984375 21.984375 -8.945312 22.046875 -8.9375 C 22.117188 -8.925781 22.203125 -8.910156 22.296875 -8.890625 C 22.390625 -8.878906 22.476562 -8.847656 22.5625 -8.796875 C 22.644531 -8.773438 22.722656 -8.695312 22.796875 -8.5625 Z M 13.3125 -19.234375 C 13.375 -19.234375 13.394531 -19.203125 13.375 -19.140625 C 13.363281 -19.078125 13.375 -19.046875 13.40625 -19.046875 C 13.457031 -19.046875 13.613281 -19.226562 13.875 -19.59375 C 14.144531 -19.96875 14.453125 -20.394531 14.796875 -20.875 C 15.140625 -21.351562 15.472656 -21.804688 15.796875 -22.234375 C 16.117188 -22.660156 16.347656 -22.941406 16.484375 -23.078125 L 16.28125 -23.359375 C 15.71875 -22.828125 15.195312 -22.203125 14.71875 -21.484375 C 14.238281 -20.765625 13.769531 -20.015625 13.3125 -19.234375 Z M 17.359375 -23.5625 C 18.210938 -22.125 19 -20.617188 19.71875 -19.046875 C 20.414062 -17.492188 21.070312 -15.945312 21.6875 -14.40625 C 21.175781 -15.945312 20.5625 -17.492188 19.84375 -19.046875 C 19.09375 -20.617188 18.28125 -22.125 17.40625 -23.5625 Z M 23.484375 -17.5625 C 24.304688 -15.425781 25.117188 -13.253906 25.921875 -11.046875 C 25.171875 -13.203125 24.382812 -15.332031 23.5625 -17.4375 C 22.789062 -19.519531 21.894531 -21.613281 20.875 -23.71875 C 21.832031 -21.695312 22.703125 -19.644531 23.484375 -17.5625 Z M 17.59375 -24.4375 C 17.945312 -24.351562 18.1875 -24.269531 18.3125 -24.1875 C 18.445312 -24.113281 18.539062 -24.078125 18.59375 -24.078125 L 18.640625 -24.203125 C 18.671875 -24.203125 18.617188 -24.210938 18.484375 -24.234375 C 18.347656 -24.265625 18.238281 -24.289062 18.15625 -24.3125 L 18.234375 -24.484375 L 17.765625 -24.640625 Z M 15.640625 -24.84375 L 15.953125 -24 L 15.921875 -24.84375 C 15.867188 -24.84375 15.804688 -24.851562 15.734375 -24.875 C 15.671875 -24.90625 15.613281 -24.921875 15.5625 -24.921875 Z M 16.6875 -23.6875 L 16.40625 -23.484375 L 16.640625 -23.15625 L 16.875 -23.40625 Z M 17.234375 -23.765625 L 17.28125 -23.765625 L 17.078125 -24.046875 L 17.078125 -24 Z M 17.234375 -23.765625 "/></g></g></g><g fill="#000000" fill-opacity="1"><g transform="translate(122.662548, 197.751241)"><g><path d="M 13.6875 -20.125 L 21.65625 -3.640625 C 21.988281 -2.960938 22.15625 -2.457031 22.15625 -2.125 C 22.15625 -1.414062 21.585938 -0.773438 20.453125 -0.203125 C 19.773438 0.128906 19.242188 0.296875 18.859375 0.296875 C 18.484375 0.296875 18.171875 0.207031 17.921875 0.03125 C 17.671875 -0.144531 17.488281 -0.332031 17.375 -0.53125 C 17.269531 -0.726562 17.125 -1.023438 16.9375 -1.421875 L 15.390625 -4.609375 L 7.203125 -4.609375 L 5.671875 -1.421875 C 5.472656 -1.023438 5.316406 -0.738281 5.203125 -0.5625 C 5.097656 -0.382812 4.921875 -0.203125 4.671875 -0.015625 C 4.429688 0.171875 4.117188 0.265625 3.734375 0.265625 C 3.347656 0.265625 2.820312 0.0976562 2.15625 -0.234375 C 1.007812 -0.785156 0.4375 -1.414062 0.4375 -2.125 C 0.4375 -2.457031 0.609375 -2.960938 0.953125 -3.640625 L 8.921875 -20.15625 C 9.140625 -20.601562 9.46875 -20.960938 9.90625 -21.234375 C 10.351562 -21.515625 10.820312 -21.65625 11.3125 -21.65625 C 12.375 -21.65625 13.164062 -21.144531 13.6875 -20.125 Z M 11.28125 -13.03125 L 9.34375 -8.984375 L 13.265625 -8.984375 Z M 11.28125 -13.03125 "/></g></g></g><g fill="#000000" fill-opacity="1"><g transform="translate(145.253996, 197.751241)"><g><path d="M 8.09375 -0.0625 C 6.101562 -0.0625 4.453125 -0.8125 3.140625 -2.3125 C 1.835938 -3.820312 1.1875 -5.660156 1.1875 -7.828125 L 1.1875 -13 C 1.1875 -13.46875 1.195312 -13.8125 1.21875 -14.03125 C 1.25 -14.25 1.335938 -14.503906 1.484375 -14.796875 C 1.753906 -15.328125 2.519531 -15.59375 3.78125 -15.59375 C 5.15625 -15.59375 5.960938 -15.222656 6.203125 -14.484375 C 6.316406 -14.160156 6.375 -13.65625 6.375 -12.96875 L 6.375 -7.796875 C 6.375 -6.992188 6.601562 -6.363281 7.0625 -5.90625 C 7.53125 -5.457031 8.15625 -5.234375 8.9375 -5.234375 C 9.71875 -5.234375 10.347656 -5.46875 10.828125 -5.9375 C 11.304688 -6.40625 11.546875 -7.023438 11.546875 -7.796875 L 11.546875 -13.03125 C 11.546875 -13.476562 11.5625 -13.816406 11.59375 -14.046875 C 11.625 -14.273438 11.71875 -14.535156 11.875 -14.828125 C 12.132812 -15.335938 12.894531 -15.59375 14.15625 -15.59375 C 15.394531 -15.59375 16.148438 -15.328125 16.421875 -14.796875 C 16.566406 -14.503906 16.648438 -14.242188 16.671875 -14.015625 C 16.703125 -13.796875 16.71875 -13.457031 16.71875 -13 L 16.71875 -2.546875 C 16.71875 -2.109375 16.703125 -1.773438 16.671875 -1.546875 C 16.648438 -1.328125 16.5625 -1.078125 16.40625 -0.796875 C 16.101562 -0.285156 15.34375 -0.03125 14.125 -0.03125 C 12.925781 -0.03125 12.1875 -0.265625 11.90625 -0.734375 C 11.707031 -1.066406 11.609375 -1.472656 11.609375 -1.953125 C 11.535156 -1.816406 11.359375 -1.617188 11.078125 -1.359375 C 10.804688 -1.097656 10.539062 -0.878906 10.28125 -0.703125 C 9.613281 -0.273438 8.882812 -0.0625 8.09375 -0.0625 Z M 8.09375 -0.0625 "/></g></g></g><g fill="#000000" fill-opacity="1"><g transform="translate(163.149968, 197.751241)"><g><path d="M 10.21875 -10.34375 L 8.296875 -10.453125 L 8.296875 -6.375 C 8.296875 -5.84375 8.378906 -5.457031 8.546875 -5.21875 C 8.722656 -4.988281 9.039062 -4.875 9.5 -4.875 C 9.957031 -4.875 10.3125 -4.859375 10.5625 -4.828125 C 10.8125 -4.796875 11.070312 -4.703125 11.34375 -4.546875 C 11.800781 -4.296875 12.03125 -3.640625 12.03125 -2.578125 C 12.03125 -1.328125 11.753906 -0.566406 11.203125 -0.296875 C 10.898438 -0.160156 10.632812 -0.078125 10.40625 -0.046875 C 10.1875 -0.015625 9.859375 0 9.421875 0 C 7.378906 0 5.820312 -0.460938 4.75 -1.390625 C 3.6875 -2.316406 3.15625 -3.882812 3.15625 -6.09375 L 3.15625 -10.453125 C 2.78125 -10.398438 2.375 -10.375 1.9375 -10.375 C 1.507812 -10.375 1.148438 -10.539062 0.859375 -10.875 C 0.578125 -11.207031 0.4375 -11.773438 0.4375 -12.578125 C 0.4375 -13.390625 0.484375 -13.976562 0.578125 -14.34375 C 0.679688 -14.707031 0.820312 -14.96875 1 -15.125 C 1.320312 -15.382812 1.71875 -15.515625 2.1875 -15.515625 L 3.15625 -15.390625 L 3.15625 -18.4375 C 3.15625 -18.882812 3.171875 -19.21875 3.203125 -19.4375 C 3.234375 -19.65625 3.328125 -19.894531 3.484375 -20.15625 C 3.742188 -20.644531 4.503906 -20.890625 5.765625 -20.890625 C 7.097656 -20.890625 7.894531 -20.523438 8.15625 -19.796875 C 8.25 -19.484375 8.296875 -18.984375 8.296875 -18.296875 L 8.296875 -15.390625 C 9.171875 -15.472656 9.828125 -15.515625 10.265625 -15.515625 C 10.710938 -15.515625 11.046875 -15.5 11.265625 -15.46875 C 11.492188 -15.4375 11.757812 -15.34375 12.0625 -15.1875 C 12.570312 -14.925781 12.828125 -14.164062 12.828125 -12.90625 C 12.828125 -11.664062 12.5625 -10.910156 12.03125 -10.640625 C 11.726562 -10.503906 11.460938 -10.421875 11.234375 -10.390625 C 11.015625 -10.359375 10.675781 -10.34375 10.21875 -10.34375 Z M 10.21875 -10.34375 "/></g></g></g><g fill="#000000" fill-opacity="1"><g transform="translate(176.409516, 197.751241)"><g><path d="M 9.8125 -15.515625 C 11.78125 -15.515625 13.414062 -14.765625 14.71875 -13.265625 C 16.03125 -11.765625 16.6875 -9.929688 16.6875 -7.765625 L 16.6875 -2.578125 C 16.6875 -2.117188 16.671875 -1.773438 16.640625 -1.546875 C 16.617188 -1.328125 16.53125 -1.066406 16.375 -0.765625 C 16.113281 -0.253906 15.351562 0 14.09375 0 C 12.894531 0 12.144531 -0.253906 11.84375 -0.765625 C 11.6875 -1.066406 11.59375 -1.332031 11.5625 -1.5625 C 11.53125 -1.800781 11.515625 -2.15625 11.515625 -2.625 L 11.515625 -7.796875 C 11.515625 -8.609375 11.289062 -9.238281 10.84375 -9.6875 C 10.394531 -10.144531 9.816406 -10.375 9.109375 -10.375 C 8.410156 -10.375 7.796875 -10.160156 7.265625 -9.734375 C 6.734375 -9.304688 6.429688 -8.828125 6.359375 -8.296875 L 6.359375 -2.578125 C 6.359375 -2.117188 6.34375 -1.773438 6.3125 -1.546875 C 6.28125 -1.328125 6.1875 -1.066406 6.03125 -0.765625 C 5.769531 -0.253906 5.007812 0 3.75 0 C 2.507812 0 1.753906 -0.265625 1.484375 -0.796875 C 1.335938 -1.085938 1.25 -1.34375 1.21875 -1.5625 C 1.195312 -1.78125 1.1875 -2.125 1.1875 -2.59375 L 1.1875 -20.265625 C 1.1875 -20.722656 1.195312 -21.0625 1.21875 -21.28125 C 1.25 -21.507812 1.335938 -21.765625 1.484375 -22.046875 C 1.753906 -22.578125 2.519531 -22.84375 3.78125 -22.84375 C 5.019531 -22.84375 5.769531 -22.578125 6.03125 -22.046875 C 6.1875 -21.742188 6.28125 -21.476562 6.3125 -21.25 C 6.34375 -21.03125 6.359375 -20.691406 6.359375 -20.234375 L 6.359375 -13.703125 C 7.335938 -14.910156 8.488281 -15.515625 9.8125 -15.515625 Z M 9.8125 -15.515625 "/></g></g></g><g fill="#000000" fill-opacity="1"><g transform="translate(194.275951, 197.751241)"><g><path d="M 15.515625 -21.65625 C 15.960938 -21.65625 16.300781 -21.640625 16.53125 -21.609375 C 16.757812 -21.578125 17.015625 -21.484375 17.296875 -21.328125 C 17.585938 -21.171875 17.789062 -20.90625 17.90625 -20.53125 C 18.019531 -20.15625 18.078125 -19.648438 18.078125 -19.015625 C 18.078125 -18.390625 18.019531 -17.890625 17.90625 -17.515625 C 17.789062 -17.140625 17.582031 -16.878906 17.28125 -16.734375 C 16.988281 -16.585938 16.726562 -16.5 16.5 -16.46875 C 16.269531 -16.4375 15.921875 -16.421875 15.453125 -16.421875 L 6.40625 -16.421875 L 6.40625 -13.4375 L 12.234375 -13.4375 C 12.703125 -13.4375 13.050781 -13.421875 13.28125 -13.390625 C 13.507812 -13.367188 13.769531 -13.28125 14.0625 -13.125 C 14.570312 -12.820312 14.828125 -12.039062 14.828125 -10.78125 C 14.828125 -9.40625 14.453125 -8.585938 13.703125 -8.328125 C 13.390625 -8.234375 12.890625 -8.1875 12.203125 -8.1875 L 6.40625 -8.1875 L 6.40625 -2.59375 C 6.40625 -2.125 6.390625 -1.78125 6.359375 -1.5625 C 6.335938 -1.34375 6.25 -1.085938 6.09375 -0.796875 C 5.8125 -0.265625 5.039062 0 3.78125 0 C 2.40625 0 1.597656 -0.375 1.359375 -1.125 C 1.242188 -1.4375 1.1875 -1.9375 1.1875 -2.625 L 1.1875 -19.0625 C 1.1875 -20.0625 1.367188 -20.742188 1.734375 -21.109375 C 2.109375 -21.472656 2.820312 -21.65625 3.875 -21.65625 Z M 15.515625 -21.65625 "/></g></g></g><g fill="#000000" fill-opacity="1"><g transform="translate(213.087393, 197.751241)"><g><path d="M 1.1875 -20.296875 C 1.1875 -20.753906 1.195312 -21.09375 1.21875 -21.3125 C 1.25 -21.539062 1.335938 -21.800781 1.484375 -22.09375 C 1.753906 -22.632812 2.519531 -22.90625 3.78125 -22.90625 C 4.976562 -22.90625 5.726562 -22.632812 6.03125 -22.09375 C 6.1875 -21.800781 6.28125 -21.535156 6.3125 -21.296875 C 6.34375 -21.066406 6.359375 -20.722656 6.359375 -20.265625 L 6.359375 -6.59375 C 6.359375 -5.882812 6.414062 -5.4375 6.53125 -5.25 C 6.644531 -5.0625 6.90625 -4.96875 7.3125 -4.96875 C 7.71875 -4.96875 7.988281 -4.953125 8.125 -4.921875 C 8.257812 -4.890625 8.425781 -4.804688 8.625 -4.671875 C 9.019531 -4.410156 9.21875 -3.710938 9.21875 -2.578125 C 9.21875 -1.328125 9.019531 -0.566406 8.625 -0.296875 C 8.113281 0.0546875 6.894531 0.113281 4.96875 -0.125 C 3.445312 -0.3125 2.460938 -0.8125 2.015625 -1.625 C 1.460938 -2.59375 1.1875 -4.128906 1.1875 -6.234375 Z M 1.1875 -20.296875 "/></g></g></g><g fill="#000000" fill-opacity="1"><g transform="translate(222.744123, 197.751241)"><g><path d="M 0.734375 -7.765625 C 0.734375 -10.128906 1.5625 -12.078125 3.21875 -13.609375 C 4.875 -15.148438 6.765625 -15.921875 8.890625 -15.921875 C 11.015625 -15.921875 12.894531 -15.15625 14.53125 -13.625 C 16.164062 -12.101562 16.984375 -10.160156 16.984375 -7.796875 C 16.984375 -6.160156 16.5625 -4.707031 15.71875 -3.4375 C 14.875 -2.164062 13.84375 -1.226562 12.625 -0.625 C 11.414062 -0.03125 10.160156 0.265625 8.859375 0.265625 C 7.554688 0.265625 6.296875 -0.0507812 5.078125 -0.6875 C 3.859375 -1.332031 2.828125 -2.28125 1.984375 -3.53125 C 1.148438 -4.78125 0.734375 -6.191406 0.734375 -7.765625 Z M 6.90625 -5.65625 C 7.539062 -5.175781 8.179688 -4.9375 8.828125 -4.9375 C 9.484375 -4.9375 10.132812 -5.179688 10.78125 -5.671875 C 11.4375 -6.160156 11.765625 -6.890625 11.765625 -7.859375 C 11.765625 -8.828125 11.457031 -9.546875 10.84375 -10.015625 C 10.226562 -10.484375 9.566406 -10.71875 8.859375 -10.71875 C 8.148438 -10.71875 7.488281 -10.472656 6.875 -9.984375 C 6.269531 -9.492188 5.96875 -8.769531 5.96875 -7.8125 C 5.96875 -6.851562 6.28125 -6.132812 6.90625 -5.65625 Z M 6.90625 -5.65625 "/></g></g></g><g fill="#000000" fill-opacity="1"><g transform="translate(240.462906, 197.751241)"><g><path d="M 21.09375 -15.453125 C 22.351562 -14.898438 22.984375 -14.222656 22.984375 -13.421875 C 22.984375 -13.078125 22.828125 -12.535156 22.515625 -11.796875 C 22.203125 -11.066406 21.9375 -10.425781 21.71875 -9.875 L 18.46875 -1.953125 C 18.175781 -1.085938 17.679688 -0.476562 16.984375 -0.125 C 16.691406 0.0195312 16.316406 0.09375 15.859375 0.09375 C 15.410156 0.09375 14.972656 -0.078125 14.546875 -0.421875 C 14.128906 -0.773438 13.847656 -1.128906 13.703125 -1.484375 L 13.46875 -1.984375 C 13.3125 -2.378906 12.734375 -3.914062 11.734375 -6.59375 C 11.535156 -6.113281 11.242188 -5.335938 10.859375 -4.265625 C 10.472656 -3.191406 10.222656 -2.519531 10.109375 -2.25 C 10.003906 -1.988281 9.9375 -1.8125 9.90625 -1.71875 C 9.882812 -1.632812 9.800781 -1.472656 9.65625 -1.234375 C 9.519531 -1.003906 9.363281 -0.800781 9.1875 -0.625 C 8.71875 -0.144531 8.175781 0.09375 7.5625 0.09375 C 6.945312 0.09375 6.429688 -0.078125 6.015625 -0.421875 C 5.609375 -0.773438 5.335938 -1.128906 5.203125 -1.484375 L 0.734375 -12.34375 C 0.535156 -12.9375 0.4375 -13.320312 0.4375 -13.5 C 0.4375 -14.289062 1 -14.910156 2.125 -15.359375 C 2.757812 -15.617188 3.269531 -15.75 3.65625 -15.75 C 4.050781 -15.75 4.375 -15.664062 4.625 -15.5 C 4.875 -15.332031 5.046875 -15.164062 5.140625 -15 C 5.234375 -14.832031 5.3125 -14.660156 5.375 -14.484375 C 5.707031 -13.691406 6.40625 -11.835938 7.46875 -8.921875 L 9.21875 -13.703125 C 9.332031 -14.097656 9.550781 -14.445312 9.875 -14.75 C 10.4375 -15.3125 11.015625 -15.59375 11.609375 -15.59375 C 12.203125 -15.59375 12.707031 -15.4375 13.125 -15.125 C 13.550781 -14.8125 13.84375 -14.5 14 -14.1875 L 14.234375 -13.6875 C 15.222656 -10.925781 15.804688 -9.347656 15.984375 -8.953125 L 17.78125 -13.859375 C 18.257812 -15.117188 18.972656 -15.75 19.921875 -15.75 C 20.285156 -15.75 20.675781 -15.648438 21.09375 -15.453125 Z M 21.09375 -15.453125 "/></g></g></g><g fill="#000000" fill-opacity="1"><g transform="translate(263.881224, 197.751241)"><g/></g></g><g fill="#000000" fill-opacity="1"><g transform="translate(271.352648, 197.751241)"><g><path d="M 17.171875 -17.28125 C 17.679688 -16.238281 17.9375 -15.078125 17.9375 -13.796875 C 17.9375 -12.515625 17.679688 -11.359375 17.171875 -10.328125 C 16.660156 -9.296875 16 -8.472656 15.1875 -7.859375 C 13.550781 -6.597656 11.859375 -5.96875 10.109375 -5.96875 L 6.40625 -5.96875 L 6.40625 -2.625 C 6.40625 -2.175781 6.390625 -1.835938 6.359375 -1.609375 C 6.335938 -1.378906 6.25 -1.117188 6.09375 -0.828125 C 5.8125 -0.296875 5.039062 -0.03125 3.78125 -0.03125 C 2.40625 -0.03125 1.597656 -0.394531 1.359375 -1.125 C 1.242188 -1.457031 1.1875 -1.96875 1.1875 -2.65625 L 1.1875 -19.0625 C 1.1875 -19.507812 1.195312 -19.847656 1.21875 -20.078125 C 1.25 -20.304688 1.34375 -20.566406 1.5 -20.859375 C 1.78125 -21.390625 2.550781 -21.65625 3.8125 -21.65625 L 10.140625 -21.65625 C 11.867188 -21.65625 13.550781 -21.023438 15.1875 -19.765625 C 16 -19.148438 16.660156 -18.320312 17.171875 -17.28125 Z M 10.140625 -11.203125 C 10.722656 -11.203125 11.300781 -11.414062 11.875 -11.84375 C 12.445312 -12.28125 12.734375 -12.929688 12.734375 -13.796875 C 12.734375 -14.660156 12.445312 -15.3125 11.875 -15.75 C 11.300781 -16.195312 10.710938 -16.421875 10.109375 -16.421875 L 6.40625 -16.421875 L 6.40625 -11.203125 Z M 10.140625 -11.203125 "/></g></g></g><g fill="#000000" fill-opacity="1"><g transform="translate(290.016427, 197.751241)"><g><path d="M 11.765625 -15.390625 C 12.140625 -15.273438 12.445312 -15.070312 12.6875 -14.78125 C 12.9375 -14.5 13.0625 -14.039062 13.0625 -13.40625 C 13.0625 -12.78125 12.875 -12.09375 12.5 -11.34375 C 12.125 -10.59375 11.582031 -10.21875 10.875 -10.21875 C 10.519531 -10.21875 10.175781 -10.296875 9.84375 -10.453125 C 9.519531 -10.617188 9.09375 -10.703125 8.5625 -10.703125 C 8.03125 -10.703125 7.53125 -10.515625 7.0625 -10.140625 C 6.601562 -9.765625 6.375 -9.3125 6.375 -8.78125 L 6.375 -2.578125 C 6.375 -2.117188 6.359375 -1.773438 6.328125 -1.546875 C 6.304688 -1.328125 6.21875 -1.066406 6.0625 -0.765625 C 5.757812 -0.253906 4.988281 0 3.75 0 C 2.800781 0 2.125 -0.164062 1.71875 -0.5 C 1.394531 -0.78125 1.21875 -1.203125 1.1875 -1.765625 C 1.1875 -1.960938 1.1875 -2.25 1.1875 -2.625 L 1.1875 -13 C 1.1875 -13.457031 1.195312 -13.796875 1.21875 -14.015625 C 1.25 -14.242188 1.335938 -14.5 1.484375 -14.78125 C 1.753906 -15.3125 2.519531 -15.578125 3.78125 -15.578125 C 4.96875 -15.578125 5.707031 -15.347656 6 -14.890625 C 6.21875 -14.578125 6.328125 -14.253906 6.328125 -13.921875 C 6.421875 -14.054688 6.5625 -14.222656 6.75 -14.421875 C 6.9375 -14.617188 7.332031 -14.882812 7.9375 -15.21875 C 8.550781 -15.550781 9.085938 -15.71875 9.546875 -15.71875 C 10.015625 -15.71875 10.40625 -15.691406 10.71875 -15.640625 C 11.039062 -15.597656 11.390625 -15.515625 11.765625 -15.390625 Z M 11.765625 -15.390625 "/></g></g></g><g fill="#000000" fill-opacity="1"><g transform="translate(303.512226, 197.751241)"><g><path d="M 0.734375 -7.765625 C 0.734375 -10.128906 1.5625 -12.078125 3.21875 -13.609375 C 4.875 -15.148438 6.765625 -15.921875 8.890625 -15.921875 C 11.015625 -15.921875 12.894531 -15.15625 14.53125 -13.625 C 16.164062 -12.101562 16.984375 -10.160156 16.984375 -7.796875 C 16.984375 -6.160156 16.5625 -4.707031 15.71875 -3.4375 C 14.875 -2.164062 13.84375 -1.226562 12.625 -0.625 C 11.414062 -0.03125 10.160156 0.265625 8.859375 0.265625 C 7.554688 0.265625 6.296875 -0.0507812 5.078125 -0.6875 C 3.859375 -1.332031 2.828125 -2.28125 1.984375 -3.53125 C 1.148438 -4.78125 0.734375 -6.191406 0.734375 -7.765625 Z M 6.90625 -5.65625 C 7.539062 -5.175781 8.179688 -4.9375 8.828125 -4.9375 C 9.484375 -4.9375 10.132812 -5.179688 10.78125 -5.671875 C 11.4375 -6.160156 11.765625 -6.890625 11.765625 -7.859375 C 11.765625 -8.828125 11.457031 -9.546875 10.84375 -10.015625 C 10.226562 -10.484375 9.566406 -10.71875 8.859375 -10.71875 C 8.148438 -10.71875 7.488281 -10.472656 6.875 -9.984375 C 6.269531 -9.492188 5.96875 -8.769531 5.96875 -7.8125 C 5.96875 -6.851562 6.28125 -6.132812 6.90625 -5.65625 Z M 6.90625 -5.65625 "/></g></g></g></svg>